<svg width="200" height="200" viewBox="0 0 200 200" fill="none" xmlns="http://www.w3.org/2000/svg">
<rect width="200" height="200" rx="41.7969" fill="#252525"/>
<path d="M95.5134 178.216C86.5521 178.216 80.199 175.675 76.454 170.593C72.8427 165.376 71.0371 157.552 71.0371 147.119C71.0371 140.699 72.0402 131.136 74.0465 118.43C76.0527 105.724 78.9284 89.0719 82.6734 68.4744C79.5971 68.8756 75.6515 69.4775 70.8365 70.28C66.1552 71.0825 61.4071 71.9519 56.5921 72.8881C51.7771 73.6906 47.7646 74.4931 44.5546 75.2956C43.7521 72.7544 43.284 70.28 43.1502 67.8725C43.0165 65.465 42.9496 63.5925 42.9496 62.255C42.9496 54.6313 44.2871 48.4119 46.9621 43.5969C49.7709 38.7819 53.449 35.2375 57.9965 32.9638C62.544 30.69 67.4927 29.5531 72.8427 29.5531C79.664 29.5531 86.4184 30.2219 93.1059 31.5594C99.7934 32.7631 106.481 34.0338 113.168 35.3713C119.99 36.7087 126.945 37.5113 134.033 37.7788C138.982 36.8425 144.466 35.6388 150.485 34.1675C156.637 32.6963 161.987 31.2919 166.535 29.9544C167.337 32.4956 167.805 34.97 167.939 37.3775C168.073 39.785 168.14 41.6575 168.14 42.995C168.14 50.6188 166.601 56.8381 163.525 61.6531C160.583 66.4681 156.57 70.0125 151.488 72.2863C146.539 74.56 141.055 75.6969 135.036 75.6969C133.298 75.6969 131.626 75.6969 130.021 75.6969C128.416 75.5631 126.878 75.4294 125.406 75.2956C124.203 81.3144 122.932 87.6006 121.595 94.1544C120.391 100.708 119.254 107.061 118.184 113.214C117.114 119.233 116.178 124.649 115.375 129.464C114.706 134.146 114.372 137.69 114.372 140.098C114.372 146.919 114.84 152.67 115.776 157.351C116.846 162.033 118.385 165.978 120.391 169.188C112.366 175.207 104.073 178.216 95.5134 178.216Z" fill="#FAFAFA"/>
</svg>
